<?xml version="1.0" ?><svg enable-background="new 0 0 512 512" id="Layer_1" version="1.1" viewBox="0 0 512 512" xml:space="preserve" xmlns="http://www.w3.org/2000/svg" xmlns:xlink="http://www.w3.org/1999/xlink"><g><g><linearGradient gradientUnits="userSpaceOnUse" id="SVGID_1_" x1="-0.0000027" x2="512" y1="256" y2="256"><stop offset="0" style="stop-color:#33B49D"/><stop offset="1" style="stop-color:#00A185"/></linearGradient><circle cx="256" cy="256" fill="url(#SVGID_1_)" r="256"/><linearGradient gradientUnits="userSpaceOnUse" id="SVGID_2_" x1="42.6666641" x2="469.3333435" y1="256.0005188" y2="256.0005188"><stop offset="0" style="stop-color:#00A185"/><stop offset="1" style="stop-color:#33B49D"/></linearGradient><path d="M256,469.3338623c-117.6315002,0-213.3333435-95.7023926-213.3333435-213.3333435    c0-117.6314545,95.7018356-213.333313,213.3333435-213.333313c117.6357117,0,213.3333435,95.7018661,213.3333435,213.333313    C469.3333435,373.6314697,373.6357117,469.3338623,256,469.3338623z" fill="url(#SVGID_2_)"/></g><g><polygon opacity="0.3" points="144.0010376,352.9482727 243.9455719,295.9808044 243.9455719,232.0191956     144.0010376,175.0517273   "/><polygon opacity="0.3" points="373.9983826,175.0527954 373.9983826,257.6474609 243.9498291,175.0517273     243.9498291,352.9482727 373.9983826,270.3514709 373.9983826,352.9472046 383.9983826,352.9472046 383.9983826,175.0527954   "/></g><g><polygon fill="#FFFFFF" points="136.0010376,344.9482727 235.9455719,287.9808044 235.9455719,224.0191956     136.0010376,167.0517273   "/><polygon fill="#FFFFFF" points="365.9983826,167.0527954 365.9983826,249.6474609 235.9498291,167.0517273     235.9498291,344.9482727 365.9983826,262.3514709 365.9983826,344.9472046 375.9983826,344.9472046 375.9983826,167.0527954   "/></g></g></svg>